HIERARCHY
ROOT hip
{
	OFFSET 0.000000 0.000000 0.000000
	CHANNELS 6 Xposition Yposition Zposition Zrotation Yrotation Xrotation 
	JOINT lhipjoint
	{
		OFFSET 0.000000 0.000000 0.000000
		CHANNELS 3 Zrotation Yrotation Xrotation
		JOINT lfemur
		{
			OFFSET 1.363060 -1.794630 0.839290
			CHANNELS 3 Zrotation Yrotation Xrotation
			JOINT ltibia
			{
				OFFSET 2.448110 -6.726130 0.000000
				CHANNELS 3 Zrotation Yrotation Xrotation
				JOINT lfoot
				{
					OFFSET 2.562200 -7.039590 0.000000
					CHANNELS 3 Zrotation Yrotation Xrotation
					JOINT ltoes
					{
						OFFSET 0.157640 -0.433110 2.322550
						CHANNELS 3 Zrotation Yrotation Xrotation
						End Site
						{
							OFFSET 0.000000 0.000000 0.000000
						}
					}
				}
			}
		}
	}
	JOINT rhipjoint
	{
		OFFSET 0.000000 0.000000 0.000000
		CHANNELS 3 Zrotation Yrotation Xrotation
		JOINT rfemur
		{
			OFFSET -1.305520 -1.794630 0.839290
			CHANNELS 3 Zrotation Yrotation Xrotation
			JOINT rtibia
			{
				OFFSET -2.542530 -6.985550 0.000000
				CHANNELS 3 Zrotation Yrotation Xrotation
				JOINT rfoot
				{
					OFFSET -2.568260 -7.056230 0.000000
					CHANNELS 3 Zrotation Yrotation Xrotation
					JOINT rtoes
					{
						OFFSET -0.164730 -0.452590 2.363150
						CHANNELS 3 Zrotation Yrotation Xrotation
						End Site
						{
							OFFSET 0.000000 0.000000 0.000000
						}
					}
				}
			}
		}
	}
	JOINT lowerback
	{
		OFFSET 0.000000 0.000000 0.000000
		CHANNELS 3 Zrotation Yrotation Xrotation
		JOINT upperback
		{
			OFFSET 0.028270 2.035590 -0.193380
			CHANNELS 3 Zrotation Yrotation Xrotation
			JOINT thorax
			{
				OFFSET 0.056720 2.048850 -0.042750
				CHANNELS 3 Zrotation Yrotation Xrotation
				JOINT lowerneck
				{
					OFFSET 0.000000 0.000000 0.000000
					CHANNELS 3 Zrotation Yrotation Xrotation
					JOINT upperneck
					{
						OFFSET -0.054170 1.746240 0.172020
						CHANNELS 3 Zrotation Yrotation Xrotation
						JOINT head
						{
							OFFSET 0.104070 1.761360 -0.123970
							CHANNELS 3 Zrotation Yrotation Xrotation
							End Site
							{
								OFFSET 0.000000 0.000000 0.000000
							}
						}
					}
				}
				JOINT lclavicle
				{
					OFFSET 0.000000 0.000000 0.000000
					CHANNELS 3 Zrotation Yrotation Xrotation
					JOINT lhumerus
					{
						OFFSET 3.362410 1.200890 -0.311210
						CHANNELS 3 Zrotation Yrotation Xrotation
						JOINT lradius
						{
							OFFSET 4.983000 -0.000000 -0.000000
							CHANNELS 3 Zrotation Yrotation Xrotation
							JOINT lwrist
							{
								OFFSET 3.483560 -0.000000 -0.000000
								CHANNELS 3 Zrotation Yrotation Xrotation
								JOINT lhand
								{
									OFFSET 0.000000 0.000000 0.000000
									CHANNELS 3 Zrotation Yrotation Xrotation
									JOINT lfingers
									{
										OFFSET 0.715260 -0.000000 -0.000000
										CHANNELS 3 Zrotation Yrotation Xrotation
										End Site
										{
											OFFSET 0.000000 0.000000 0.000000
										}
									}
								}
								JOINT lthumb
								{
									OFFSET 0.000000 0.000000 0.000000
									CHANNELS 3 Zrotation Yrotation Xrotation
									End Site
									{
										OFFSET 0.000000 0.000000 0.000000
									}
								}
							}
						}
					}
				}
				JOINT rclavicle
				{
					OFFSET 0.000000 0.000000 0.000000
					CHANNELS 3 Zrotation Yrotation Xrotation
					JOINT rhumerus
					{
						OFFSET -3.136600 1.374050 -0.404650
						CHANNELS 3 Zrotation Yrotation Xrotation
						JOINT rradius
						{
							OFFSET -5.241900 -0.000000 -0.000000
							CHANNELS 3 Zrotation Yrotation Xrotation
							JOINT rwrist
							{
								OFFSET -3.444170 -0.000000 -0.000000
								CHANNELS 3 Zrotation Yrotation Xrotation
								JOINT rhand
								{
									OFFSET 0.000000 0.000000 0.000000
									CHANNELS 3 Zrotation Yrotation Xrotation
									JOINT rfingers
									{
										OFFSET -0.622530 -0.000000 -0.000000
										CHANNELS 3 Zrotation Yrotation Xrotation
										End Site
										{
											OFFSET 0.000000 0.000000 0.000000
										}
									}
								}
								JOINT rthumb
								{
									OFFSET 0.000000 0.000000 0.000000
									CHANNELS 3 Zrotation Yrotation Xrotation
									End Site
									{
										OFFSET 0.000000 0.000000 0.000000
									}
								}
							}
						}
					}
				}
			}
		}
	}
}
MOTION
Frames: 9
Frame Time: 0.008333
2.617590 17.897986 5.067808 -173.592477 -13.099515 166.644137 -1.667182 2.900213 2.183066 -9.540312 1.865381 8.487515 0.703078 5.177736 15.927984 0.600752 -2.463262 1.771823 0.929600 -6.142100 -17.197400 0.347392 -4.229421 1.528166 23.957913 1.947309 8.862364 -1.706164 -6.098610 21.689339 2.872406 -13.513183 -6.123740 -0.306500 3.559100 -9.839500 2.048301 0.320863 13.812865 1.288340 -0.389509 -2.620030 3.550958 -0.108183 5.141859 -4.628239 -6.677901 -9.858088 0.220860 -7.772751 2.164081 3.912700 -3.266400 1.771300 -0.055436 2.855121 0.732084 -74.123802 11.676890 32.313159 62.657653 -64.307164 -33.256405 0.537811 1.054926 98.471526 11.404781 19.021970 4.046300 -7.125000 0.000000 0.000000 -15.115400 48.362600 -1.281000 1.540741 0.535672 2.717121 68.328198 -7.757454 23.965961 -121.701330 50.018569 -82.772973 1.012493 -2.665011 159.049299 17.857654 -6.861987 -3.167100 7.125000 0.000000 0.000000 36.666000 -37.144500 8.563500 
2.610416 17.899524 5.081952 -173.595148 -13.276969 166.620319 -1.662428 2.895527 2.170989 -9.593955 1.839821 8.448589 0.700589 5.170309 15.912889 0.614734 -2.559005 1.903251 0.930800 -6.145900 -17.208300 0.354027 -4.227526 1.521460 23.916075 1.932115 8.891920 -1.698742 -6.081519 21.623513 2.916282 -13.686839 -6.106179 -0.312100 3.591500 -9.930100 2.136193 0.358810 13.784661 1.279495 -0.345377 -2.590216 3.488304 -0.085291 5.282411 -4.709585 -6.818302 -9.855660 0.173436 -7.944616 2.226060 3.907100 -3.351500 1.804800 -0.001385 2.932773 0.781030 -74.666105 9.510996 34.847523 62.193392 -64.292459 -32.614253 0.538780 1.099257 97.785034 11.484848 18.891311 4.056000 -7.125000 0.000000 0.000000 -14.951600 48.240200 -1.220500 1.481675 0.458441 2.687942 68.581007 -6.270549 26.963687 -120.999190 50.209245 -81.574271 1.052655 -2.712468 159.665646 16.960794 -5.874949 -2.723700 7.125000 0.000000 0.000000 35.677500 -36.431100 9.006500 
2.602626 17.900549 5.095789 -173.612437 -13.440516 166.584485 -1.658827 2.890499 2.159197 -9.683701 1.747820 8.462558 0.699589 5.167961 15.908808 0.618558 -2.588900 1.982884 0.901900 -6.052400 -16.936400 0.358168 -4.224243 1.514685 23.886651 1.992666 8.977941 -1.691184 -6.063953 21.553671 2.974897 -13.924953 -6.137104 -0.320200 3.637500 -10.059100 2.170260 0.382369 13.772643 1.275279 -0.326227 -2.559265 3.463267 -0.080918 5.420670 -4.769092 -6.929390 -9.839805 0.123284 -8.081157 2.301120 3.892500 -3.421700 1.836200 0.060755 3.010633 0.832096 -75.274131 7.255162 37.565464 61.494142 -64.228374 -31.805586 0.526664 1.145747 97.091389 11.466180 18.789409 4.041800 -7.125000 0.000000 0.000000 -14.895100 48.144900 -1.180100 1.421320 0.374685 2.653415 68.868616 -4.743086 30.239210 -120.199489 50.458510 -80.154700 1.095391 -2.732384 160.264371 15.429901 -4.780427 -2.177300 7.125000 0.000000 0.000000 34.212800 -35.645800 9.293400 
2.594631 17.903316 5.109215 -173.622115 -13.601916 166.561203 -1.658020 2.886197 2.148288 -9.752200 1.688442 8.441249 0.697822 5.163841 15.900486 0.626878 -2.647492 2.089101 0.886300 -6.001200 -16.787900 0.360533 -4.221360 1.506916 23.839064 1.982933 9.009869 -1.684465 -6.048523 21.494977 3.013235 -14.078821 -6.144277 -0.323700 3.656800 -10.113000 2.179352 0.381725 13.755235 1.279877 -0.339998 -2.530683 3.484324 -0.098236 5.565622 -4.840025 -7.015013 -9.865502 0.058032 -8.182617 2.408222 3.867900 -3.477900 1.890800 0.130734 3.088184 0.879040 -75.919482 4.881496 40.530428 60.572695 -64.107179 -30.839615 0.501129 1.190451 96.321249 11.367124 18.641553 3.992800 -7.125000 0.000000 0.000000 -14.904500 48.004400 -1.128300 1.360502 0.280730 2.612366 69.180225 -3.140610 33.732609 -119.113743 50.827121 -78.278875 1.127143 -2.717676 160.784913 13.271470 -3.819581 -1.635000 7.125000 0.000000 0.000000 32.350900 -34.975900 9.243900 
2.586534 17.904136 5.123359 -173.619739 -13.748201 166.534911 -1.656683 2.882293 2.137647 -9.801291 1.655248 8.416249 0.695439 5.157323 15.885610 0.638238 -2.725926 2.193997 0.874700 -5.962600 -16.675900 0.362899 -4.218519 1.499416 23.808981 1.989659 9.046031 -1.678645 -6.035091 21.442628 3.050420 -14.226924 -6.138958 -0.332500 3.706100 -10.251300 2.203702 0.384313 13.741964 1.283130 -0.348717 -2.502365 3.487736 -0.111140 5.704244 -4.868750 -7.089976 -9.870353 -0.015079 -8.274879 2.519843 3.829700 -3.531500 1.939100 0.213593 3.175106 0.924111 -76.604372 2.190599 43.804395 58.887430 -63.773345 -29.360873 0.455133 1.223448 95.522964 11.313769 18.475204 3.954500 -7.125000 0.000000 0.000000 -14.884400 47.868600 -1.075900 1.295443 0.177286 2.572090 69.493742 -1.410097 37.414062 -117.720580 51.312301 -75.932508 1.153638 -2.651571 161.243879 10.730472 -2.919917 -1.135600 7.125000 0.000000 0.000000 30.225900 -34.317700 9.020800 
2.578232 17.905571 5.137401 -173.630607 -13.889945 166.531526 -1.657634 2.878768 2.127957 -9.859108 1.630041 8.357995 0.695208 5.156889 15.891314 0.650872 -2.814597 2.306287 0.853200 -5.890800 -16.467800 0.364705 -4.215071 1.493363 23.769692 2.017518 9.064588 -1.672283 -6.021326 21.387940 3.090284 -14.388418 -6.160284 -0.335900 3.724300 -10.302200 2.198428 0.374025 13.723796 1.289711 -0.373252 -2.480405 3.533491 -0.134593 5.823603 -4.946553 -7.161800 -9.859396 -0.080367 -8.358703 2.645984 3.804700 -3.582000 1.996000 0.306534 3.269498 0.962354 -77.382987 -0.779693 47.348018 56.562617 -63.209471 -27.465794 0.393418 1.246513 94.549480 11.382211 18.256054 3.943000 -7.125000 0.000000 0.000000 -14.747000 47.706300 -1.005400 1.227655 0.060580 2.534923 69.721358 0.425363 41.274876 -115.954960 51.925020 -73.041740 1.159394 -2.539789 161.583430 8.150347 -2.308185 -0.760100 7.125000 0.000000 0.000000 28.139600 -33.847300 8.607000 
2.568906 17.907621 5.150418 -173.647007 -14.035006 166.532756 -1.658291 2.874781 2.116801 -9.932016 1.582440 8.306606 0.695072 5.157320 15.898805 0.661510 -2.890614 2.412272 0.820900 -5.781100 -16.150700 0.367356 -4.211712 1.485584 23.697550 1.990091 9.057937 -1.666099 -6.009608 21.339808 3.116812 -14.493737 -6.148232 -0.340300 3.748600 -10.370600 2.196314 0.367472 13.693710 1.295419 -0.396151 -2.453388 3.564226 -0.157697 5.966537 -5.019685 -7.242177 -9.840161 -0.139476 -8.456452 2.776407 3.781400 -3.639600 2.053200 0.399952 3.378576 0.987855 -78.125319 -3.846342 51.121924 54.261069 -62.564065 -25.609151 0.330607 1.260488 93.372078 11.511205 17.903066 3.917900 -7.125000 0.000000 0.000000 -14.514300 47.415600 -0.882900 1.151544 -0.070487 2.506271 70.119531 2.388368 44.828487 -113.801112 52.694498 -69.601726 1.126642 -2.368130 162.057592 5.418529 -2.015043 -0.467100 7.125000 0.000000 0.000000 25.994800 -33.588900 7.993200 
2.559989 17.909363 5.163640 -173.640702 -14.148560 166.530068 -1.659896 2.872183 2.106568 -9.958062 1.606017 8.225202 0.695658 5.159626 15.912729 0.677377 -3.001230 2.531947 0.806100 -5.730100 -16.003400 0.367963 -4.207574 1.478116 23.674606 2.014993 9.070972 -1.660840 -5.997917 21.293973 3.150370 -14.629521 -6.162100 -0.343500 3.766000 -10.419200 2.206543 0.353625 13.684561 1.305022 -0.425913 -2.427571 3.599066 -0.185172 6.086125 -5.071261 -7.301999 -9.778969 -0.206991 -8.528560 2.911011 3.750000 -3.686400 2.100000 0.479983 3.489484 0.995122 -78.726387 -6.770595 54.901635 52.396749 -61.970277 -24.079411 0.271501 1.271641 91.816447 11.607318 17.454753 3.857100 -7.125000 0.000000 0.000000 -14.280600 47.013800 -0.723900 1.089198 -0.206608 2.491112 70.451200 4.351573 48.113922 -111.672789 53.476735 -66.220217 1.071656 -2.160721 162.581895 3.071268 -1.904760 -0.258500 7.125000 0.000000 0.000000 24.155400 -33.422000 7.433300 
2.550047 17.911208 5.176246 -173.637832 -14.264972 166.533220 -1.660615 2.869021 2.096955 -10.006911 1.583178 8.164679 0.696103 5.161620 15.924404 0.687677 -3.075288 2.624036 0.784400 -5.654200 -15.784300 0.369813 -4.203639 1.471552 23.635876 2.036839 9.074377 -1.655702 -5.988130 21.253566 3.176774 -14.737518 -6.178561 -0.340700 3.751000 -10.377100 2.229627 0.335442 13.677371 1.310702 -0.459178 -2.403861 3.611160 -0.209654 6.180523 -5.124549 -7.362257 -9.651914 -0.264294 -8.602467 3.045053 3.729600 -3.734200 2.132900 0.536424 3.594308 0.992852 -79.233160 -9.308031 58.269709 51.124682 -61.526807 -22.987767 0.228258 1.272795 90.247642 11.780052 16.790221 3.764100 -7.125000 0.000000 0.000000 -13.912600 46.390600 -0.486700 1.042096 -0.335014 2.487113 70.643258 6.134355 51.032713 -109.912277 54.148356 -63.400221 1.009180 -1.961809 163.266609 1.320326 -1.910824 -0.122700 7.125000 0.000000 0.000000 22.785900 -33.325000 7.004000 
